<svg width="54" height="57" viewBox="0 0 54 57" fill="none" xmlns="http://www.w3.org/2000/svg">
<path d="M53 29.1908C53 71.8332 59.4035 51 35 51C9.5 51 0 42.9979 0 29.1908C0 15.3837 7.5 5.58041 33 5.5804C58.5 5.58039 53 -17.1667 53 29.1908Z" fill="white"/>
<path d="M24.4537 18.2302L22.2949 19.9127C21.9012 20.2199 21.9022 20.7227 22.2949 21.0284L31.2404 28.0004L22.2949 34.9725C21.9012 35.2798 21.9037 35.7829 22.2949 36.0882L24.4537 37.7707C24.8464 38.0764 25.4924 38.0764 25.8851 37.7707L35.5278 30.2549L35.5463 30.2408L37.7051 28.5583C38.0973 28.2522 38.0993 27.7499 37.7051 27.4426L35.5463 25.7601L35.5278 25.746L25.8851 18.2302C25.4914 17.9233 24.8479 17.9233 24.4537 18.2302Z" fill="#847F7F"/>
<path d="M24.4537 18.2302L22.2949 19.9127C21.9012 20.2199 21.9022 20.7227 22.2949 21.0284L31.2404 28.0004L22.2949 34.9725C21.9012 35.2798 21.9037 35.7829 22.2949 36.0882L24.4537 37.7707C24.8464 38.0764 25.4924 38.0764 25.8851 37.7707L35.5278 30.2549L35.5463 30.2408L37.7051 28.5583C38.0973 28.2522 38.0993 27.7499 37.7051 27.4426L35.5463 25.7601L35.5278 25.746L25.8851 18.2302C25.4914 17.9233 24.8479 17.9233 24.4537 18.2302Z" stroke="black"/>
</svg>
